<?xml version="1.0" encoding="UTF-8"?>
<svg width="800" height="600" viewBox="0 0 800 600" xmlns="http://www.w3.org/2000/svg">
    <!-- Background -->
    <rect width="800" height="600" fill="#f8f9fa" opacity="0.5"/>
    
    <!-- Sun -->
    <circle cx="600" cy="150" r="60" fill="#ffd700" opacity="0.8"/>
    <circle cx="600" cy="150" r="70" fill="#ffd700" opacity="0.2"/>
    
    <!-- Mountains -->
    <path d="M0,400 L200,200 L400,350 L600,150 L800,300 L800,600 L0,600 Z" fill="#198754" opacity="0.7"/>
    <path d="M0,450 L200,300 L400,400 L600,250 L800,400 L800,600 L0,600 Z" fill="#20c997" opacity="0.5"/>
    
    <!-- Fields -->
    <path d="M0,500 Q 200,450 400,500 T 800,500 L800,600 L0,600 Z" fill="#2ecc71" opacity="0.6"/>
    
    <!-- Trees -->
    <g transform="translate(100,350)">
        <path d="M-20,40 L20,40 L0,0 Z" fill="#198754"/>
        <path d="M-15,20 L15,20 L0,-20 Z" fill="#198754"/>
        <rect x="-5" y="40" width="10" height="20" fill="#795548"/>
    </g>
    
    <g transform="translate(700,400)">
        <path d="M-25,50 L25,50 L0,0 Z" fill="#198754"/>
        <path d="M-20,25 L20,25 L0,-25 Z" fill="#198754"/>
        <rect x="-6" y="50" width="12" height="25" fill="#795548"/>
    </g>
    
    <!-- Plants -->
    <g transform="translate(300,450)">
        <path d="M0,0 Q-10,-20 0,-40 Q10,-20 0,0" stroke="#2ecc71" fill="none" stroke-width="3"/>
        <path d="M-5,-15 L5,-15" stroke="#2ecc71" stroke-width="2"/>
    </g>
    
    <g transform="translate(500,480)">
        <path d="M0,0 Q-15,-25 0,-50 Q15,-25 0,0" stroke="#2ecc71" fill="none" stroke-width="3"/>
        <path d="M-8,-20 L8,-20" stroke="#2ecc71" stroke-width="2"/>
    </g>
</svg> 